<svg xmlns="http://www.w3.org/2000/svg" viewBox="0 0 1080 1920"><defs><style>.cls-1{opacity:0.1;}.cls-2{fill:none;stroke:#002b91;stroke-miterlimit:10;stroke-width:20px;}</style></defs><title>Prancheta 1</title><g id="Camada_1" data-name="Camada 1" class="cls-1"><circle class="cls-2" cx="1600.17" cy="764.2" r="1084.83"/><circle class="cls-2" cx="-449.36" cy="1683.29" r="854.64"/><line class="cls-2" x1="-16.66" y1="1692.83" x2="1289.21" y2="1042.94"/><line class="cls-2" x1="-91.94" y1="1409.57" x2="1220.57" y2="918.22"/><line class="cls-2" x1="-137.14" y1="1073.08" x2="1142.72" y2="796.01"/><polyline class="cls-2" points="-91.94 764.2 622.66 702.42 1089.15 662.08"/><line class="cls-2" x1="564.31" y1="921.23" x2="622.91" y2="702.26"/><line class="cls-2" x1="550.92" y1="713.14" x2="645.23" y2="903.71"/><line class="cls-2" x1="765.02" y1="694.12" x2="718.56" y2="887.83"/><line class="cls-2" x1="686.15" y1="702.26" x2="793.22" y2="871.67"/><line class="cls-2" x1="891.05" y1="679.21" x2="849.4" y2="859.51"/><line class="cls-2" x1="828.76" y1="684.6" x2="918.48" y2="844.56"/><line class="cls-2" x1="21.53" y1="2034.05" x2="1288.84" y2="1197.83"/><line class="cls-2" x1="443.41" y1="2085.94" x2="1298.04" y2="1421.32"/><line class="cls-2" x1="-68.03" y1="457.03" x2="1113.05" y2="501.39"/><circle class="cls-2" cx="229.96" cy="1444.76" r="27.62"/><circle class="cls-2" cx="293.16" cy="1343.06" r="30.55"/><circle class="cls-2" cx="167.18" cy="1370.26" r="35.16"/><circle class="cls-2" cx="147.09" cy="1504.19" r="37.67"/><circle class="cls-2" cx="329.57" cy="1487.45" r="20.93"/><circle class="cls-2" cx="311.15" cy="1428.02" r="18.42"/><circle class="cls-2" cx="245.44" cy="1523.02" r="30.55"/><circle class="cls-2" cx="80.12" cy="1588.73" r="35.16"/><circle class="cls-2" cx="71.75" cy="1421.32" r="43.53"/><polyline class="cls-2" points="936.96 675.24 1026.29 821.22 954.85 828.68 1005.07 675.5"/><line class="cls-2" x1="-44.45" y1="130.15" x2="1125.95" y2="301.23"/><line class="cls-2" x1="-54.4" y1="-279.89" x2="1167.59" y2="72.22"/></g></svg>